
        <svg xmlns="http://www.w3.org/2000/svg" xmlns:xlink="http://www.w3.org/1999/xlink" version="1.1" width="3192" 
        height="3192" viewBox="0 0 3192 3192">
			
			<g transform="scale(9.6) translate(10, 10)">
				<defs id="SvgjsDefs6139"></defs><g id="SvgjsG6140" featureKey="rootContainer" transform="matrix(1.5902660807115943,0,0,1.5902660807115943,0,0)" fill="#43b33c"><path xmlns="http://www.w3.org/2000/svg" d="M98.254 0C44.077 0 0 44.076 0 98.254s44.077 98.254 98.254 98.254c54.177 0 98.254-44.076 98.254-98.254S152.431 0 98.254 0zm0 195.508C44.628 195.508 1 151.88 1 98.254S44.628 1 98.254 1c53.626 0 97.254 43.628 97.254 97.254s-43.628 97.254-97.254 97.254z"></path><path xmlns="http://www.w3.org/2000/svg" d="M98.254 5.453c-51.171 0-92.801 41.63-92.801 92.801s41.63 92.801 92.801 92.801 92.802-41.63 92.802-92.801S149.425 5.453 98.254 5.453z"></path></g><g id="SvgjsG6141" featureKey="symbolFeature-0" transform="matrix(1.285227173522015,0,0,1.285227173522015,92.43949476132978,41.881499692444535)" fill="#232931"><g xmlns="http://www.w3.org/2000/svg"><path d="M57.907,91.349H42.093V46.292H20.666V30.479h21.427V8.651h15.814v21.828h21.427v15.813H57.907V91.349z M47.093,86.349   h5.814V41.292h21.427v-5.813H52.907V13.651h-5.814v21.828H25.666v5.813h21.427V86.349z"></path></g></g><g id="SvgjsG6142" featureKey="nameFeature-0" transform="matrix(0.810860652936088,0,0,0.810860652936088,54.37852382927013,175.26967216476694)" fill="#232931"><path d="M26.025 15.236999999999998 l0 21.526 l1.3632 3.237 l-10.323 0 l1.3632 -3.237 l0 -7.34 l-3.7347 1.2631 l-3.7342 -1.2626 l0 7.3395 l1.3632 3.237 l-10.323 0 l1.3632 -3.237 l0 -21.526 l-1.3632 -3.237 l10.323 0 l-1.3632 3.237 l0 7.8368 l3.7342 1.2621 l3.7347 -1.2626 l0 -7.8362 l-1.3632 -3.237 l10.323 0 z M50.78 12 l5.2844 5.2844 l0 17.431 l-5.2844 5.2844 l-10.356 0 l-5.2844 -5.2844 l0 -17.431 l5.2844 -5.2844 l10.356 0 z M48.468 32.9376 l0 -13.876 l-1.0742 -1.0742 l-3.583 0 l-1.0742 1.0742 l0 13.876 l1.0742 1.0742 l3.583 0 z M78.018 34.0124 l4.5856 -2.3686 l-2.7631 8.3568 l-16.041 0 l1.3632 -3.2375 l0 -21.526 l-1.3632 -3.237 l10.323 0.0005078 l-1.3632 3.237 l0 18.775 l5.259 0 z M113.275 15.236999999999998 l-6.3164 13.171 l0 8.3553 l1.3632 3.237 l-10.323 0 l1.3632 -3.237 l0 -8.3553 l-6.3164 -13.171 l-2.7061 -3.237 l9.827 0 l-0.53044 1.4663 l3.524 7.348 l3.5235 -7.348 l-0.53044 -1.4663 l9.827 0 z M146.008 16.292 l0 6.2748 l-2.8657 2.8662 l2.8657 2.8657 l0 7.4094 l-4.224 4.292 l-18.064 0 l1.3632 -3.237 l0 -21.526 l-1.3632 -3.237 l18.064 0 z M132.68 17.988 l0 4.451 l4.4223 0 l1.0742 -1.0747 l0 -2.3021 l-1.0742 -1.0742 l-4.4223 0 z M138.379 32.9376 l0 -3.4368 l-1.0742 -1.0742 l-4.6245 0 l0 5.5857 l4.6245 0 z M162.70000000000002 15.236999999999998 l0 21.526 l1.3632 3.237 l-10.323 0 l1.3632 -3.237 l0 -21.526 l-1.3632 -3.237 l10.323 0 z M194.08800000000002 16.292 l0 6.2748 l-2.8657 2.8662 l2.8657 2.8657 l0 7.4094 l-4.224 4.292 l-18.064 0 l1.3632 -3.237 l0 -21.526 l-1.3632 -3.237 l18.064 0 z M180.76000000000002 17.988 l0 4.451 l4.4223 0 l1.0742 -1.0747 l0 -2.3021 l-1.0742 -1.0742 l-4.4223 0 z M186.459 32.9376 l0 -3.4368 l-1.0742 -1.0742 l-4.6245 0 l0 5.5857 l4.6245 0 z M216.038 34.0124 l4.5856 -2.3686 l-2.7631 8.3568 l-16.041 0 l1.3632 -3.2375 l0 -21.526 l-1.3632 -3.237 l10.323 0.0005078 l-1.3632 3.237 l0 18.775 l5.259 0 z M244.066 34.0124 l4.5852 -2.3686 l-2.7631 8.3564 l-17.528 0 l1.3632 -3.237 l0 -21.526 l-1.3632 -3.237 l16.762 0 l2.4181 7.3808 l-4.24 -1.393 l-5.9803 0 l0 4.451 l3.6524 0 l2.4394 -0.80156 l0 7.5914 l-2.4394 -0.80208 l-3.6524 0 l0 5.5857 l6.7462 0 z"></path></g><g id="SvgjsG6143" featureKey="sloganFeature-0" transform="matrix(2.035984842592653,0,0,2.035984842592653,109.8386937558968,207.0151532283512)" fill="#232931"><path d="M6.06 16.96 l2.4 -6.36 l-0.6 -2.34 c-0.26 -0.96 1.08 -1.2 1.3 -0.36 l2.36 8.68 l2.54 -8.68 c0.26 -0.9 1.58 -0.52 1.32 0.34 l-3.1 10.54 c-0.12 0.38 -0.46 0.62 -0.78 0.62 c-0.36 0 -0.68 -0.22 -0.8 -0.62 l-1.64 -6.02 c-0.76 2 -1.56 4.04 -2.3 6.04 c-0.14 0.36 -0.46 0.6 -0.76 0.6 s-0.6 -0.2 -0.74 -0.64 l-3.18 -10.52 c-0.26 -0.86 0.96 -1.14 1.22 -0.38 z M18.922 19.54 c-0.6 0 -1.06 -0.44 -1.06 -1.06 s0.46 -1.06 1.06 -1.06 c0.62 0 1.08 0.44 1.08 1.06 s-0.46 1.06 -1.08 1.06 z M22.823999999999998 18.7 l0 -10.64 c0 -0.46 0.36 -0.7 0.7 -0.7 l4.6 0 c0.44 0 0.66 0.32 0.66 0.66 s-0.22 0.68 -0.66 0.68 l-3.96 0 l0 3.88 l3.14 0 c0.46 0 0.68 0.32 0.68 0.66 s-0.24 0.7 -0.68 0.7 l-3.14 0 l0 4.14 l3.96 0 c0.42 0 0.64 0.34 0.64 0.66 c0 0.34 -0.22 0.66 -0.64 0.66 l-4.6 0 c-0.34 0 -0.7 -0.12 -0.7 -0.7 z M32.285999999999994 19.54 c-0.6 0 -1.06 -0.44 -1.06 -1.06 s0.46 -1.06 1.06 -1.06 c0.62 0 1.08 0.44 1.08 1.06 s-0.46 1.06 -1.08 1.06 z M36.187999999999995 18.72 l0 -10.72 c0 -0.32 0.16 -0.64 0.6 -0.64 l2.62 0 c1.98 0 3.06 0.72 3.06 2.72 c0 0.8 -0.1 1.58 -0.6 2.12 c1.14 0.8 1.34 2.18 1.34 3.58 c0 2.46 -1.34 3.62 -3.64 3.62 l-2.68 0 c-0.34 0 -0.7 -0.12 -0.7 -0.68 z M37.52799999999999 18.08 l1.74 0 c1.66 0 2.58 -0.68 2.58 -2.3 c0 -1.66 -0.42 -2.78 -2.04 -2.78 l-2.28 0 l0 5.08 z M41.147999999999996 10.08 c0 -1.2 -0.84 -1.38 -1.74 -1.38 l-1.88 0 l0 2.96 l1.84 0 c1.26 0 1.78 -0.36 1.78 -1.58 z"></path></g>
			</g>
		</svg>
	