
        <svg xmlns="http://www.w3.org/2000/svg" xmlns:xlink="http://www.w3.org/1999/xlink" version="1.1" width="3192" 
        height="3192" viewBox="0 0 3192 3192">
			
			<g transform="scale(9.6) translate(10, 10)">
				<defs id="SvgjsDefs4217"></defs><g id="SvgjsG4218" featureKey="rootContainer" transform="matrix(1.5902660807115943,0,0,1.5902660807115943,0,0)" fill="#43b33c"><path xmlns="http://www.w3.org/2000/svg" d="M98.254 0C44.077 0 0 44.076 0 98.254s44.077 98.254 98.254 98.254c54.177 0 98.254-44.076 98.254-98.254S152.431 0 98.254 0zm0 195.508C44.628 195.508 1 151.88 1 98.254S44.628 1 98.254 1c53.626 0 97.254 43.628 97.254 97.254s-43.628 97.254-97.254 97.254z"></path><path xmlns="http://www.w3.org/2000/svg" d="M98.254 5.453c-51.171 0-92.801 41.63-92.801 92.801s41.63 92.801 92.801 92.801 92.802-41.63 92.802-92.801S149.425 5.453 98.254 5.453z"></path></g><g id="SvgjsG4219" featureKey="symbolFeature-0" transform="matrix(0.818181887539956,0,0,0.818181887539956,115.48181696458286,79.90909056230022)" fill="#000000"><g xmlns="http://www.w3.org/2000/svg"><path d="M81,34.3c0-2.6-2.1-4.6-4.7-4.6c-2.3,0-4.1,1.6-4.6,3.7H55.6V18c2.1-0.5,3.7-2.4,3.7-4.6c0-2.6-2.1-4.7-4.6-4.7   C54.1,6.6,52.3,5,50,5c-2.3,0-4.1,1.6-4.6,3.7c-2.6,0-4.6,2.1-4.6,4.7c0,2.3,1.6,4.1,3.7,4.6v15.3H28.3c-0.5-2.1-2.4-3.7-4.6-3.7   c-2.6,0-4.7,2.1-4.7,4.6c-2.1,0.5-3.7,2.3-3.7,4.6c0,2.3,1.6,4.1,3.7,4.6c0,2.6,2.1,4.6,4.7,4.6c2.3,0,4.1-1.6,4.6-3.7h16.1V82   c-2.1,0.5-3.7,2.4-3.7,4.6c0,2.6,2.1,4.7,4.6,4.7c0.5,2.1,2.4,3.7,4.6,3.7c2.3,0,4.1-1.6,4.6-3.7c2.6,0,4.6-2.1,4.6-4.7   c0-2.3-1.6-4.1-3.7-4.6V44.5h16.1c0.5,2.1,2.4,3.7,4.6,3.7c2.6,0,4.7-2.1,4.7-4.6c2.1-0.5,3.7-2.3,3.7-4.6   C84.7,36.7,83.1,34.8,81,34.3z"></path><path d="M42.3,54.4c-3.3-1.7-6.1-4.4-7.7-7.7h-4.1c2.1,5.4,6.4,9.7,11.8,11.8V54.4z"></path><path d="M57.7,54.4v4.1c5.4-2.1,9.7-6.4,11.8-11.8h-4.1C63.8,50,61,52.7,57.7,54.4z"></path><path d="M42.3,23.5v-4c0,0-0.1-0.1-0.1-0.1c-5.3,2.2-9.6,6.4-11.7,11.8h4.1C36.2,27.9,39,25.2,42.3,23.5z"></path><path d="M57.7,19.5v4c3.3,1.7,6.1,4.4,7.7,7.7h4.1c-2.1-5.4-6.4-9.6-11.7-11.8C57.8,19.5,57.7,19.5,57.7,19.5z"></path></g></g><g id="SvgjsG4220" featureKey="nameFeature-0" transform="matrix(1.761136935141784,0,0,1.761136935141784,56.00000041988777,158.13437416232392)" fill="#000000"><path d="M7.2 11.440000000000001 l3.8 0 l0 28.52 l-3.8 0 l0 -15.08 l-3.4 0 l0 15.08 l-3.8 0 l0 -28.52 l3.8 0 l0 9.68 l3.4 0 l0 -9.68 z M18.826999999999998 40.04 c-3 0 -5.4 -2.44 -5.4 -5.4 l0 -17.96 c0 -2.96 2.4 -5.36 5.4 -5.36 c2.96 0 5.36 2.4 5.36 5.36 l0 17.96 c0 2.96 -2.4 5.4 -5.36 5.4 z M18.826999999999998 15.120000000000001 c-0.88 0 -1.56 0.72 -1.56 1.56 l0 17.96 c0 0.88 0.68 1.56 1.56 1.56 c0.84 0 1.56 -0.68 1.56 -1.56 l0 -17.96 c0 -0.84 -0.72 -1.56 -1.56 -1.56 z M30.373999999999995 36.24 l5.52 0 l0 3.76 l-9.28 0 l0 -28.72 l3.76 0 l0 24.96 z M49.041 11.440000000000001 l-5.36 17.36 l0 11.2 l-3.88 0 l0 -11.24 l-4.92 -17.32 l4 0 l2.92 10.28 l3.2 -10.28 l4.04 0 z M69.215 23.04 c0.88 0.88 1.44 2.08 1.44 3.4 l0 8.76 c0 2.64 -2.16 4.8 -4.8 4.8 l-5.92 0 l-0.04 -28.48 l5.28 0 c2.92 0.12 4.64 2.92 4.6 5.56 l-0.04 3.96 c0 0.72 -0.2 1.4 -0.52 2 z M65.855 36.16 c0.56 0 1 -0.44 1 -0.96 l-0.04 -8.76 c0 -0.56 -0.44 -0.96 -0.96 -0.96 l-2.12 0 l0 10.68 l2.12 0 z M63.695 15.32 l0 6.32 l1.6 0 c0.32 0 0.64 -0.28 0.64 -0.64 l0.04 -3.96 c0 -0.8 -0.4 -1.68 -0.96 -1.72 l-1.32 0 z M76.882 11.36 l0 28.48 l-3.8 0 l0 -28.48 l3.8 0 z M88.62900000000002 23.04 c0.88 0.88 1.44 2.08 1.44 3.4 l0 8.76 c0 2.64 -2.16 4.8 -4.8 4.8 l-5.92 0 l-0.04 -28.48 l5.28 0 c2.92 0.12 4.64 2.92 4.6 5.56 l-0.04 3.96 c0 0.72 -0.2 1.4 -0.52 2 z M85.269 36.16 c0.56 0 1 -0.44 1 -0.96 l-0.04 -8.76 c0 -0.56 -0.44 -0.96 -0.96 -0.96 l-2.12 0 l0 10.68 l2.12 0 z M83.10900000000001 15.32 l0 6.32 l1.6 0 c0.32 0 0.64 -0.28 0.64 -0.64 l0.04 -3.96 c0 -0.8 -0.4 -1.68 -0.96 -1.72 l-1.32 0 z M96.25600000000001 36.24 l5.52 0 l0 3.76 l-9.28 0 l0 -28.72 l3.76 0 l0 24.96 z M113.523 24.92 l-5.52 0 l0 11.28 l5.56 0 l0 3.8 l-9.36 0 l0 -28.56 l9.36 0 l0 3.8 l-5.56 0 l0 5.88 l5.52 0 l0 3.8 z"></path></g>
			</g>
		</svg>
	